<svg id="eHfwFP4AOUC1" xmlns="http://www.w3.org/2000/svg" xmlns:xlink="http://www.w3.org/1999/xlink" viewBox="0 0 300 300" shape-rendering="geometricPrecision" text-rendering="geometricPrecision" project-id="1a04df8090d34fba98f37d14aa212522" export-id="01f18a187bce416b935b0f671a50043e" cached="false"><path d="M60.09,73.21h-9.2v-35.47l-11,3.41v-7.48l19.2-6.88h1Zm0,0h-9.2v-35.47l-11,3.41v-7.48l19.2-6.88h1Z" transform="translate(16.027881-17.095506)" fill="#5483cc"/><path d="M66.35,73.5h-31.78v-6.3l15-16c1.717745-1.804469,3.248849-3.777817,4.57-5.89.913427-1.431612,1.424645-3.082709,1.48-4.78.102359-1.757614-.453816-3.490313-1.56-4.86-1.148235-1.225714-2.783743-1.874783-4.46-1.77-1.88504-.087062-3.703355.707526-4.92,2.15-1.257973,1.606624-1.896781,3.611773-1.8,5.65h-9.23c-.036373-2.712296.65421-5.384852,2-7.74c1.348946-2.334244,3.33239-4.237935,5.72-5.49c2.58121-1.359409,5.463083-2.047206,8.38-2q7.16,0,11.13,3.44t4,9.71c-.037189,2.440501-.646884,4.838177-1.78,7-1.65062,3.052807-3.702141,5.871127-6.1,8.38L46.42,66.08h19.93Zm0,0h-31.78v-6.3l15-16c1.717745-1.804469,3.248849-3.777817,4.57-5.89.913427-1.431612,1.424645-3.082709,1.48-4.78.102359-1.757614-.453816-3.490313-1.56-4.86-1.148235-1.225714-2.783743-1.874783-4.46-1.77-1.88504-.087062-3.703355.707526-4.92,2.15-1.257973,1.606624-1.896781,3.611773-1.8,5.65h-9.23c-.036373-2.712296.65421-5.384852,2-7.74c1.348946-2.334244,3.33239-4.237935,5.72-5.49c2.58121-1.359409,5.463083-2.047206,8.38-2q7.16,0,11.13,3.44t4,9.71c-.037189,2.440501-.646884,4.838177-1.78,7-1.65062,3.052807-3.702141,5.871127-6.1,8.38L46.42,66.08h19.93Z" transform="translate(22.269222 123.532265)" fill="#5483cc"/><path d="M44.38,45.92h4.9q3.5,0,5.19-1.75c1.161951-1.261967,1.770531-2.936464,1.69-4.65.093984-1.625517-.514144-3.213206-1.67-4.36-1.273072-1.096752-2.9224-1.656089-4.6-1.56-1.601504-.054546-3.170695.459071-4.43,1.45-1.157558.903329-1.818023,2.302179-1.78,3.77h-9.2c-.017366-2.323849.68091-4.596736,2-6.51c1.374948-1.980718,3.271767-3.541787,5.48-4.51c2.433965-1.099685,5.07934-1.652654,7.75-1.62q7.36,0,11.53,3.52c2.814188,2.415271,4.353539,5.996015,4.17,9.7.004329,2.111774-.676397,4.167986-1.94,5.86-1.305894,1.793602-3.061554,3.211238-5.09,4.11c2.344752.741386,4.391043,2.213033,5.84,4.2c1.311291,1.954523,1.985475,4.267009,1.93,6.62.13264,3.824713-1.537114,7.490027-4.51,9.9q-4.51,3.73-11.92,3.73-6.94,0-11.35-3.66c-2.897937-2.363302-4.528526-5.942463-4.41-9.68h9.2c-.033394,1.656855.705775,3.234981,2,4.27c1.350916,1.121821,3.064795,1.712078,4.82,1.66c1.834557.073354,3.628621-.552066,5.02-1.75c1.254666-1.193143,1.932748-2.87012,1.86-4.6q0-6.94-7.64-6.94h-4.84Zm0,0h4.9q3.5,0,5.19-1.75c1.161951-1.261967,1.770531-2.936464,1.69-4.65.093984-1.625517-.514144-3.213206-1.67-4.36-1.273072-1.096752-2.9224-1.656089-4.6-1.56-1.601504-.054546-3.170695.459071-4.43,1.45-1.157558.903329-1.818023,2.302179-1.78,3.77h-9.2c-.017366-2.323849.68091-4.596736,2-6.51c1.374948-1.980718,3.271767-3.541787,5.48-4.51c2.433965-1.099685,5.07934-1.652654,7.75-1.62q7.36,0,11.53,3.52c2.814188,2.415271,4.353539,5.996015,4.17,9.7.004329,2.111774-.676397,4.167986-1.94,5.86-1.305894,1.793602-3.061554,3.211238-5.09,4.11c2.344752.741386,4.391043,2.213033,5.84,4.2c1.311291,1.954523,1.985475,4.267009,1.93,6.62.13264,3.824713-1.537114,7.490027-4.51,9.9q-4.51,3.73-11.92,3.73-6.94,0-11.35-3.66c-2.897937-2.363302-4.528526-5.942463-4.41-9.68h9.2c-.033394,1.656855.705775,3.234981,2,4.27c1.350916,1.121821,3.064795,1.712078,4.82,1.66c1.834557.073354,3.628621-.552066,5.02-1.75c1.254666-1.193143,1.932748-2.87012,1.86-4.6q0-6.94-7.64-6.94h-4.84Z" transform="translate(21.384575 52.900803)" fill="#5483cc"/><path d="M61.69,55.73h5.25v7.42h-5.25v10h-9.2v-10h-19l-.41-5.8L52.39,26.82h9.3Zm-19.46,0h10.25v-16.37l-.61,1.05Zm19.46,0h5.25v7.42h-5.25v10h-9.2v-10h-19l-.41-5.8L52.39,26.82h9.3Zm-19.46,0h10.25v-16.37l-.61,1.05Z" transform="translate(22.258551 196.177234)" fill="#5483cc"/><line x1="-99.500371" y1="0" x2="99.500372" y2="0" transform="translate(155.418252 64.108155)" fill="none" stroke="#3f5787" stroke-width="8" stroke-linecap="round"/><line x1="-99.500371" y1="0" x2="99.500372" y2="0" transform="translate(155.418252 134.75796)" fill="none" stroke="#3f5787" stroke-width="8" stroke-linecap="round"/><line x1="-99.500371" y1="0" x2="99.500372" y2="0" transform="translate(154.838922 206.716097)" fill="none" stroke="#3f5787" stroke-width="8" stroke-linecap="round"/><line x1="-99.500371" y1="0" x2="99.500372" y2="0" transform="translate(154.838922 278.020066)" fill="none" stroke="#3f5787" stroke-width="8" stroke-linecap="round"/><ellipse rx="4.898938" ry="5.161478" transform="translate(89.198551 50.953017)" fill="#d2dbed" stroke-width="0"/><ellipse rx="4.898938" ry="5.161478" transform="translate(97.339731 121.559325)" fill="#d2dbed" stroke-width="0"/><ellipse rx="4.898938" ry="5.161478" transform="translate(98.996427 191.870787)" fill="#d2dbed" stroke-width="0"/><ellipse rx="4.898938" ry="5.161478" transform="translate(98.996427 264.165756)" fill="#d2dbed" stroke-width="0"/></svg>
