<svg id="ec3fBxmOCRX1" xmlns="http://www.w3.org/2000/svg" xmlns:xlink="http://www.w3.org/1999/xlink" viewBox="0 0 1216 996" shape-rendering="geometricPrecision" text-rendering="geometricPrecision" project-id="a637f01282914495ad197d30cc5df317" export-id="98cad720ea1f42c4ae4f5e52949b3b6a" cached="false"><g transform="matrix(1.496955 0 0 1.412766-302.148646-205.557462)"><g transform="matrix(.1 0 0-.1 5.098974 1001.5)"><path d="M4117,8548c-19-15-68-101-1019-1783-383-676-766-1354-852-1505s-156-284-156-294c0-11,155-312,344-670s358-679,376-713c18-35,37-63,44-63c10,1,340,594,2251,4038c300,541,545,988,545,993s-302,9-758,9c-591,0-762-3-775-12Z"/><path d="M6410,8545c0-3,197-337,438-742c241-406,451-759,466-785v0c-324-593-1330-2529-1548-2927s-396-735-396-748c0-14,154-287,359-636c197-337,366-627,375-644c9-18,21-33,26-33s107,172,226,383c120,210,399,702,622,1092c223,391,589,1036,815,1435c225,399,585,1032,798,1408c214,375,390.45502,689,390.45502,697c0,14-791.45502,1465-813.45502,1493-8,9-197,12-884,12-481,0-874-2-874-5Z"/><path d="M4571,5663C3828,4355,3188,3231,3149,3165c-48-83-68-128-66-146c4-36,783-1459,814-1486l24-23h864c475,0,866,4,869,8c3,5-130,235-296,513-165,277-376,631-468,786l-168,281l140,259c78,142,521,955,985,1807c554,1017,843,1556,841,1571-3,23-748,1304-759,1305-3,0-614-1070-1358-2377Z"/><path d="M9119,6403c-122-219-1400-2516-2101-3775-336-603-607-1101-603-1107c4-8,234-11,769-11h763l20,23c11,12,422,738,913,1612c492,875,938,1669,992,1765c61,108,97,184,96,198-3,25-749,1441-760,1442-3,0-43-66-89-147Z"/></g></g></svg>
